<svg width="600" height="100" viewBox="0 0 600 100" fill="none" xmlns="http://www.w3.org/2000/svg">
<rect width="256.452" height="100" fill="white"/>
<path d="M4.83871 95.4546V30.5195V4.54547H24.1935V95.4546H4.83871Z" fill="black"/>
<path d="M43.5484 4.54547L19.3548 40.9091V68.1818L62.9032 4.54547H43.5484Z" fill="black"/>
<path d="M43.5484 95.4545L29.0323 50L43.5484 31.8182L62.9032 95.4545H43.5484Z" fill="black"/>
<path d="M87.0968 4.54547L67.7419 95.4546H87.0968L94.3548 59.0909H99.1935L106.452 95.4546H125.806L106.452 4.54547H87.0968Z" fill="black"/>
<path d="M99.1935 54.5455H94.3548L96.7742 34.0909L99.1935 54.5455Z" fill="white"/>
<path d="M130.645 4.54547V95.4546H150V68.1818L159.677 95.4546H188.71V4.54547H169.355V77.2727L150 4.54547H130.645Z" fill="black"/>
<path d="M251.613 95.4546H193.548V4.54547H251.613V22.7273H212.903V40.9091H237.097V59.0909H212.903V77.2727H251.613V95.4546Z" fill="black"/>
<rect x="256.452" width="343.548" height="100" fill="black"/>
<path d="M382.258 95.4546H324.194V4.54547H382.258V22.7273H343.548V40.9091H367.742V59.0909H343.548V77.2727H382.258V95.4546Z" fill="white"/>
<path d="M261.29 95.4546V30.5195V4.54547H280.645V95.4546H261.29Z" fill="white"/>
<path d="M300 4.54547L275.806 40.9091V68.1818L319.355 4.54547H300Z" fill="white"/>
<path d="M300 95.4545L285.484 50L300 31.8182L319.355 95.4545H300Z" fill="white"/>
<path d="M488.71 95.4546H469.355V31.8182V22.7273H450V4.54547H508.065V22.7273H488.71V31.8182V95.4546Z" fill="white"/>
<path d="M512.903 95.4546V4.54547H532.258V95.4546H512.903Z" fill="white"/>
<path d="M445.161 22.7273V4.54547H387.097V31.8182V59.0909H425.806V77.2727H387.097V95.4546H445.161V40.9091H406.452V22.7273H425.806H445.161Z" fill="white"/>
<path d="M595.161 22.7273V4.54547H537.097V31.8182V59.0909H575.806V77.2727H537.097V95.4546H595.161V40.9091H556.452V22.7273H575.806H595.161Z" fill="white"/>
<rect x="91.9355" y="54.5455" width="9.67742" height="13.6364" fill="black"/>
</svg>
